<?xml version="1.0" encoding="UTF-8"?>
<svg version="1.1" xmlns="http://www.w3.org/2000/svg" width="228" height="228">
<path d="M0 0 C75.24 0 150.48 0 228 0 C228 75.24 228 150.48 228 228 C152.76 228 77.52 228 0 228 C0 152.76 0 77.52 0 0 Z " fill="#000000" transform="translate(0,0)"/>
<path d="M0 0 C1.0209375 -0.01160156 1.0209375 -0.01160156 2.0625 -0.0234375 C4.6291455 0.50438073 5.2988897 1.38176103 7 3.375 C8.02422726 5.2215264 8.98019551 7.10651026 9.890625 9.01171875 C10.43187012 10.13876221 10.97311523 11.26580566 11.53076172 12.42700195 C12.10413114 13.63869745 12.67720489 14.85053291 13.25 16.0625 C13.83973994 17.29854844 14.42974753 18.53446923 15.02001953 19.77026367 C18.37502867 26.81787429 21.62073868 33.90258523 24.68310547 41.08203125 C26.43219286 45.16069867 28.35018969 49.1141199 30.375 53.0625 C33.34967369 58.89846295 35.95538052 64.84009648 38.5 70.875 C41.46147796 77.89117709 44.59000472 84.70820203 48.06640625 91.484375 C51.14249541 97.57414467 53.89691043 103.82049721 56.7175293 110.03125 C59.07322397 115.20670755 61.4583698 120.36297046 63.9296875 125.484375 C64.39334717 126.44529053 64.85700684 127.40620605 65.3347168 128.39624023 C66.21914766 130.22112709 67.10843745 132.04366913 68.00317383 133.86352539 C68.39786865 134.67813232 68.79256348 135.49273926 69.19921875 136.33203125 C69.54815186 137.04335205 69.89708496 137.75467285 70.2565918 138.48754883 C71 140.375 71 140.375 71 143.375 C66.38 143.375 61.76 143.375 57 143.375 C51.32243634 132.27430293 46.07592529 121.03934222 41.0625 109.625 C40.35861415 108.03080274 39.65426378 106.43681051 38.94946289 104.84301758 C37.57732394 101.73982495 36.2065363 98.63604244 34.83691406 95.53173828 C32.55638011 90.36665525 30.25430119 85.21141354 27.9375 80.0625 C27.6288501 79.37381836 27.3202002 78.68513672 27.00219727 77.97558594 C24.04648855 71.41085959 20.98362206 64.89581265 17.93405151 58.37435913 C16.71704641 55.76933121 15.50374504 53.1625892 14.29090881 50.55561829 C13.09815366 47.99185967 11.90418438 45.42866721 10.71020508 42.86547852 C10.10598232 41.56780457 9.50214832 40.26994955 8.89868164 38.97192383 C5.68559509 32.06168122 2.45990202 25.16602356 -1 18.375 C-1.20568604 18.90754395 -1.41137207 19.44008789 -1.62329102 19.98876953 C-2.59606568 22.49527569 -3.57927532 24.99757548 -4.5625 27.5 C-5.04686523 28.75490234 -5.04686523 28.75490234 -5.54101562 30.03515625 C-7.82293739 35.81602471 -10.43583214 41.35426705 -13.25076294 46.89453125 C-16.68363559 53.67098053 -19.81187539 60.57781721 -22.9375 67.5 C-23.58134656 68.91989266 -24.22531112 70.33973182 -24.86938477 71.75952148 C-28.36569443 79.47872395 -31.8233355 87.21448421 -35.25 94.96484375 C-35.60131485 95.75870483 -35.9526297 96.55256592 -36.31459045 97.3704834 C-38.00510773 101.19192389 -39.69119845 105.01519921 -41.36889648 108.84228516 C-45.62345216 118.50842217 -50.20877533 127.96434757 -55 137.375 C-55.99 139.355 -56.98 141.335 -58 143.375 C-62.62 143.375 -67.24 143.375 -72 143.375 C-70.48384017 138.82652052 -68.95324865 135.10797168 -66.78125 130.90234375 C-63.10503851 123.68845845 -59.77554391 116.34206765 -56.5 108.9375 C-55.3611561 106.37680924 -54.21982284 103.81723188 -53.078125 101.2578125 C-52.54251953 100.05672852 -52.00691406 98.85564453 -51.45507812 97.61816406 C-49.25168667 92.70711506 -46.96927452 87.83650739 -44.671875 82.96875 C-43.36753315 80.16502453 -42.08898633 77.35453049 -40.828125 74.53125 C-40.44237305 73.66765869 -40.05662109 72.80406738 -39.65917969 71.91430664 C-38.92262995 70.26110308 -38.18861109 68.60676782 -37.45800781 66.95092773 C-35.30595698 62.11980341 -33.01321418 57.38329803 -30.625 52.6640625 C-26.69718577 44.89412026 -23.18394688 36.95388668 -19.69775391 28.97680664 C-6.97388567 -0.0792487 -6.97388567 -0.0792487 0 0 Z " fill="#FAFAFA" transform="translate(114,41.625)"/>
</svg>
